<svg xmlns="http://www.w3.org/2000/svg" x="0px" y="0px" width="24" height="24" viewBox="0,0,256,256">
<defs><linearGradient x1="16.309" y1="1.101" x2="23.023" y2="19.546" gradientUnits="userSpaceOnUse" id="color-1_W0YEwBDDfTeu_gr1"><stop offset="0" stop-color="#41201b"></stop><stop offset="0.443" stop-color="#41201b"></stop><stop offset="1" stop-color="#41201b"></stop></linearGradient><linearGradient x1="15.64" y1="14.636" x2="22.314" y2="32.971" gradientUnits="userSpaceOnUse" id="color-2_W0YEwBDDfTeu_gr2"><stop offset="0" stop-color="#41201b"></stop><stop offset="1" stop-color="#41201b"></stop></linearGradient><linearGradient x1="14.81" y1="26.357" x2="21.821" y2="45.617" gradientUnits="userSpaceOnUse" id="color-3_W0YEwBDDfTeu_gr3"><stop offset="0" stop-color="#41201b"></stop><stop offset="1" stop-color="#41201b"></stop></linearGradient><linearGradient x1="27.498" y1="0.512" x2="34.119" y2="18.702" gradientUnits="userSpaceOnUse" id="color-4_W0YEwBDDfTeu_gr4"><stop offset="0" stop-color="#41201b"></stop><stop offset="1" stop-color="#41201b"></stop></linearGradient><linearGradient x1="28.714" y1="14.972" x2="34.857" y2="31.85" gradientUnits="userSpaceOnUse" id="color-5_W0YEwBDDfTeu_gr5"><stop offset="0" stop-color="#41201b"></stop><stop offset="1" stop-color="#41201b"></stop></linearGradient></defs><g fill="none" fill-rule="nonzero" stroke="none" stroke-width="none" stroke-linecap="butt" stroke-linejoin="none" stroke-miterlimit="10" stroke-dasharray="" stroke-dashoffset="0" font-family="none" font-weight="none" font-size="none" text-anchor="none" style="mix-blend-mode: normal"><path transform="scale(5.33333,5.33333)" d="M25,38c0,3.866 -3.134,7 -7,7c-3.866,0 -7,-3.134 -7,-7c0,-3.866 3.134,-7 7,-7c-3.866,0 -7,-3.134 -7,-7c0,-3.866 3.134,-7 7,-7c-3.866,0 -7,-3.134 -7,-7c0,-3.866 3.134,-7 7,-7h14c3.866,0 7,3.134 7,7c0,3.866 -3.134,7 -7,7h-7zM25,24c0,-3.86599 3.13401,-7 7,-7c3.86599,0 7,3.13401 7,7c0,3.86599 -3.13401,7 -7,7c-3.86599,0 -7,-3.13401 -7,-7z" id="strokeMainSVG" fill="#ffffff" stroke="#ffffff" stroke-width="4" stroke-linejoin="round"></path><g transform="scale(5.33333,5.33333)" stroke="none" stroke-width="1" stroke-linejoin="miter"><path d="M26,17h-8c-3.866,0 -7,-3.134 -7,-7v0c0,-3.866 3.134,-7 7,-7h8z" fill="url(#color-1_W0YEwBDDfTeu_gr1)"></path><path d="M25,31h-7c-3.866,0 -7,-3.134 -7,-7v0c0,-3.866 3.134,-7 7,-7h7z" fill="url(#color-2_W0YEwBDDfTeu_gr2)"></path><path d="M18,45v0c-3.866,0 -7,-3.134 -7,-7v0c0,-3.866 3.134,-7 7,-7h7v7c0,3.866 -3.134,7 -7,7z" fill="url(#color-3_W0YEwBDDfTeu_gr3)"></path><path d="M32,17h-7v-14h7c3.866,0 7,3.134 7,7v0c0,3.866 -3.134,7 -7,7z" fill="url(#color-4_W0YEwBDDfTeu_gr4)"></path><circle cx="32" cy="24" r="7" fill="url(#color-5_W0YEwBDDfTeu_gr5)"></circle></g></g>
</svg>