<svg xmlns="http://www.w3.org/2000/svg" x="0px" y="0px" width="24" height="24" viewBox="0,0,256,256">
<g fill="none" fill-rule="nonzero" stroke="none" stroke-width="none" stroke-linecap="butt" stroke-linejoin="none" stroke-miterlimit="10" stroke-dasharray="" stroke-dashoffset="0" font-family="none" font-weight="none" font-size="none" text-anchor="none" style="mix-blend-mode: normal"><path transform="scale(5.33333,5.33333)" d="M7,29l-6,-4v-20l17,11l17,-11v21l-11.59101,7.50007l6.59101,4.26493v0.235l11,-7.11765v-6.88235l6,-4v14l-17,11v-0.235l-12,-7.765v-7l11,-7.11765l0,-7l-11,7.11765l-11,-7.11765zM47,13l-6,4v-7l6,-4z" id="strokeMainSVG" fill="#ffffff" stroke="#ffffff" stroke-width="4" stroke-linejoin="round"></path><g transform="scale(5.33333,5.33333)" fill="#41201b" stroke="none" stroke-width="1" stroke-linejoin="miter"><path d="M1,5l6,4v20l-6,-4z"></path><path d="M47,20l-6,4v13l6,-4z"></path><path d="M47,6l-6,4v7l6,-4z"></path><path d="M35,5l-6,4v20l6,-4z"></path><path d="M1,12l17,11v-7l-17,-11z"></path><path d="M35,12l-17,11v-7l17,-11z"></path><path d="M35,26l-17,11v-7l17,-11z"></path><path d="M47,34l-17,11v-7l17,-11z"></path><path d="M30,37.765l-12,-7.765v7l12,7.765z"></path></g></g>
</svg>