<svg xmlns="http://www.w3.org/2000/svg" x="0px" y="0px" width="24" height="24" viewBox="0,0,256,256">
<g fill="none" fill-rule="nonzero" stroke="none" stroke-width="none" stroke-linecap="butt" stroke-linejoin="none" stroke-miterlimit="10" stroke-dasharray="" stroke-dashoffset="0" font-family="none" font-weight="none" font-size="none" text-anchor="none" style="mix-blend-mode: normal"><path transform="scale(5.33333,5.33333)" d="M24,9.604c5.948,0 8.672,2.763 11.025,5.151c1.445,1.466 2.75,2.791 4.575,3.247c3.2,0.799 6,-0.401 8.4,-3.6c-1.6,6.399 -5.6,9.598 -12,9.598c-5.949,0 -8.672,-2.764 -11.024,-5.151c-1.445,-1.466 -2.75,-2.791 -4.576,-3.247c-3.2,-0.799 -6,0.4 -8.4,3.599c1.6,-6.398 5.6,-9.597 12,-9.597zM12,24c5.949,0 8.672,2.764 11.024,5.152c1.445,1.465 2.75,2.79 4.576,3.246c3.2,0.8 6,-0.4 8.4,-3.599c-1.6,6.399 -5.6,9.598 -12,9.598c-5.948,0 -8.672,-2.764 -11.025,-5.152c-1.445,-1.465 -2.75,-2.789 -4.575,-3.246c-3.2,-0.8 -6,0.4 -8.4,3.599c1.6,-6.399 5.6,-9.598 12,-9.598z" id="strokeMainSVG" fill="#ffffff" stroke="#ffffff" stroke-width="5" stroke-linejoin="round"></path><g transform="scale(5.33333,5.33333)" fill="#41201b" stroke="none" stroke-width="1" stroke-linejoin="miter"><path d="M24,9.604c-6.4,0 -10.4,3.199 -12,9.597c2.4,-3.199 5.2,-4.398 8.4,-3.599c1.826,0.456 3.131,1.781 4.576,3.247c2.352,2.387 5.075,5.151 11.024,5.151c6.4,0 10.4,-3.199 12,-9.598c-2.4,3.199 -5.2,4.399 -8.4,3.6c-1.825,-0.456 -3.13,-1.781 -4.575,-3.247c-2.353,-2.388 -5.077,-5.151 -11.025,-5.151zM12,24c-6.4,0 -10.4,3.199 -12,9.598c2.4,-3.199 5.2,-4.399 8.4,-3.599c1.825,0.457 3.13,1.781 4.575,3.246c2.353,2.388 5.077,5.152 11.025,5.152c6.4,0 10.4,-3.199 12,-9.598c-2.4,3.199 -5.2,4.399 -8.4,3.599c-1.826,-0.456 -3.131,-1.781 -4.576,-3.246c-2.352,-2.388 -5.075,-5.152 -11.024,-5.152z"></path></g></g>
</svg>